<mxfile host="app.diagrams.net" modified="2023-05-05T12:01:04.937Z" agent="Mozilla/5.0 (Windows NT 10.0; Win64; x64) AppleWebKit/537.36 (KHTML, like Gecko) Chrome/115.0.0.0 Safari/537.36" etag="wIceVBAhDgqpomBTWcuJ" version="21.2.7" type="device">
  <diagram name="Sayfa -1" id="uPo1O55NAchBgoXq3XYz">
    <mxGraphModel dx="819" dy="437" grid="1" gridSize="10" guides="1" tooltips="1" connect="1" arrows="1" fold="1" page="1" pageScale="1" pageWidth="827" pageHeight="1169" math="0" shadow="0">
      <root>
        <mxCell id="0" />
        <mxCell id="1" parent="0" />
        <mxCell id="HkwCybVTA4TNs5xXxVJj-41" style="edgeStyle=orthogonalEdgeStyle;rounded=0;orthogonalLoop=1;jettySize=auto;html=1;exitX=1;exitY=0.5;exitDx=0;exitDy=0;exitPerimeter=0;entryX=0;entryY=0.5;entryDx=0;entryDy=0;" edge="1" parent="1" target="HkwCybVTA4TNs5xXxVJj-40">
          <mxGeometry relative="1" as="geometry">
            <mxPoint x="243" y="453" as="sourcePoint" />
            <mxPoint x="250" y="453" as="targetPoint" />
          </mxGeometry>
        </mxCell>
        <mxCell id="HkwCybVTA4TNs5xXxVJj-17" value="" style="verticalLabelPosition=bottom;shadow=0;dashed=0;align=center;html=1;verticalAlign=top;shape=mxgraph.electrical.logic_gates.logic_gate;operation=and;" vertex="1" parent="1">
          <mxGeometry x="144" y="423" width="100" height="60" as="geometry" />
        </mxCell>
        <mxCell id="HkwCybVTA4TNs5xXxVJj-44" style="edgeStyle=orthogonalEdgeStyle;rounded=0;orthogonalLoop=1;jettySize=auto;html=1;exitX=1;exitY=0.5;exitDx=0;exitDy=0;exitPerimeter=0;entryX=0;entryY=0.5;entryDx=0;entryDy=0;" edge="1" parent="1" target="HkwCybVTA4TNs5xXxVJj-42">
          <mxGeometry relative="1" as="geometry">
            <mxPoint x="243" y="349.9999999999999" as="sourcePoint" />
          </mxGeometry>
        </mxCell>
        <mxCell id="HkwCybVTA4TNs5xXxVJj-32" value="" style="verticalLabelPosition=bottom;shadow=0;dashed=0;align=center;html=1;verticalAlign=top;shape=mxgraph.electrical.logic_gates.logic_gate;operation=and;" vertex="1" parent="1">
          <mxGeometry x="144" y="320" width="100" height="60" as="geometry" />
        </mxCell>
        <mxCell id="HkwCybVTA4TNs5xXxVJj-62" style="edgeStyle=orthogonalEdgeStyle;rounded=0;orthogonalLoop=1;jettySize=auto;html=1;exitX=1;exitY=0.5;exitDx=0;exitDy=0;exitPerimeter=0;entryX=0;entryY=0.5;entryDx=0;entryDy=0;" edge="1" parent="1" target="HkwCybVTA4TNs5xXxVJj-59">
          <mxGeometry relative="1" as="geometry">
            <mxPoint x="243" y="259.9999999999999" as="sourcePoint" />
          </mxGeometry>
        </mxCell>
        <mxCell id="HkwCybVTA4TNs5xXxVJj-33" value="" style="verticalLabelPosition=bottom;shadow=0;dashed=0;align=center;html=1;verticalAlign=top;shape=mxgraph.electrical.logic_gates.logic_gate;operation=and;" vertex="1" parent="1">
          <mxGeometry x="144" y="230" width="100" height="60" as="geometry" />
        </mxCell>
        <mxCell id="HkwCybVTA4TNs5xXxVJj-38" style="edgeStyle=orthogonalEdgeStyle;rounded=0;orthogonalLoop=1;jettySize=auto;html=1;exitX=1;exitY=0.5;exitDx=0;exitDy=0;exitPerimeter=0;entryX=0;entryY=0.5;entryDx=0;entryDy=0;" edge="1" parent="1" target="HkwCybVTA4TNs5xXxVJj-37">
          <mxGeometry relative="1" as="geometry">
            <mxPoint x="243" y="180.0000000000001" as="sourcePoint" />
          </mxGeometry>
        </mxCell>
        <mxCell id="HkwCybVTA4TNs5xXxVJj-34" value="" style="verticalLabelPosition=bottom;shadow=0;dashed=0;align=center;html=1;verticalAlign=top;shape=mxgraph.electrical.logic_gates.logic_gate;operation=and;" vertex="1" parent="1">
          <mxGeometry x="144" y="150" width="100" height="60" as="geometry" />
        </mxCell>
        <mxCell id="HkwCybVTA4TNs5xXxVJj-37" value="Gelmedi" style="rounded=1;whiteSpace=wrap;html=1;fillColor=#f8cecc;strokeColor=#b85450;" vertex="1" parent="1">
          <mxGeometry x="259" y="150" width="114" height="60" as="geometry" />
        </mxCell>
        <mxCell id="HkwCybVTA4TNs5xXxVJj-40" value="Hesapla" style="rounded=1;whiteSpace=wrap;html=1;fillColor=#d5e8d4;strokeColor=#82b366;" vertex="1" parent="1">
          <mxGeometry x="259" y="423" width="114" height="60" as="geometry" />
        </mxCell>
        <mxCell id="HkwCybVTA4TNs5xXxVJj-42" value="Eğer 2. giriş yaparsa 8 saat" style="rounded=1;whiteSpace=wrap;html=1;fillColor=#ffe6cc;strokeColor=#d79b00;" vertex="1" parent="1">
          <mxGeometry x="259" y="320" width="114" height="60" as="geometry" />
        </mxCell>
        <mxCell id="HkwCybVTA4TNs5xXxVJj-45" value="" style="endArrow=classic;html=1;rounded=0;entryX=0;entryY=0.25;entryDx=0;entryDy=0;entryPerimeter=0;strokeColor=#FF0000;" edge="1" parent="1" target="HkwCybVTA4TNs5xXxVJj-34">
          <mxGeometry width="50" height="50" relative="1" as="geometry">
            <mxPoint x="24" y="165" as="sourcePoint" />
            <mxPoint x="104" y="170" as="targetPoint" />
          </mxGeometry>
        </mxCell>
        <mxCell id="HkwCybVTA4TNs5xXxVJj-46" value="" style="endArrow=classic;html=1;rounded=0;entryX=0;entryY=0.75;entryDx=0;entryDy=0;entryPerimeter=0;strokeColor=#FF0000;" edge="1" parent="1" target="HkwCybVTA4TNs5xXxVJj-34">
          <mxGeometry width="50" height="50" relative="1" as="geometry">
            <mxPoint x="24" y="195" as="sourcePoint" />
            <mxPoint x="134" y="199.66" as="targetPoint" />
          </mxGeometry>
        </mxCell>
        <mxCell id="HkwCybVTA4TNs5xXxVJj-47" value="" style="endArrow=classic;html=1;rounded=0;entryX=0;entryY=0.25;entryDx=0;entryDy=0;entryPerimeter=0;strokeColor=#FF0000;" edge="1" parent="1" target="HkwCybVTA4TNs5xXxVJj-33">
          <mxGeometry width="50" height="50" relative="1" as="geometry">
            <mxPoint x="24" y="245" as="sourcePoint" />
            <mxPoint x="124" y="249.31" as="targetPoint" />
          </mxGeometry>
        </mxCell>
        <mxCell id="HkwCybVTA4TNs5xXxVJj-48" value="" style="endArrow=classic;html=1;rounded=0;entryX=0;entryY=0.75;entryDx=0;entryDy=0;entryPerimeter=0;strokeColor=#00FF00;" edge="1" parent="1" target="HkwCybVTA4TNs5xXxVJj-33">
          <mxGeometry width="50" height="50" relative="1" as="geometry">
            <mxPoint x="24" y="275" as="sourcePoint" />
            <mxPoint x="124" y="279.65999999999997" as="targetPoint" />
          </mxGeometry>
        </mxCell>
        <mxCell id="HkwCybVTA4TNs5xXxVJj-49" value="" style="endArrow=classic;html=1;rounded=0;entryX=0;entryY=0.25;entryDx=0;entryDy=0;entryPerimeter=0;strokeColor=#00FF00;" edge="1" parent="1" target="HkwCybVTA4TNs5xXxVJj-32">
          <mxGeometry width="50" height="50" relative="1" as="geometry">
            <mxPoint x="24" y="335" as="sourcePoint" />
            <mxPoint x="124" y="330" as="targetPoint" />
          </mxGeometry>
        </mxCell>
        <mxCell id="HkwCybVTA4TNs5xXxVJj-50" value="" style="endArrow=classic;html=1;rounded=0;entryX=0;entryY=0.75;entryDx=0;entryDy=0;entryPerimeter=0;strokeColor=#FF0000;" edge="1" parent="1" target="HkwCybVTA4TNs5xXxVJj-32">
          <mxGeometry width="50" height="50" relative="1" as="geometry">
            <mxPoint x="24" y="365" as="sourcePoint" />
            <mxPoint x="124" y="359.65999999999997" as="targetPoint" />
          </mxGeometry>
        </mxCell>
        <mxCell id="HkwCybVTA4TNs5xXxVJj-51" value="" style="endArrow=classic;html=1;rounded=0;entryX=0;entryY=0.25;entryDx=0;entryDy=0;entryPerimeter=0;strokeColor=#00FF00;" edge="1" parent="1" target="HkwCybVTA4TNs5xXxVJj-17">
          <mxGeometry width="50" height="50" relative="1" as="geometry">
            <mxPoint x="24" y="438" as="sourcePoint" />
            <mxPoint x="134" y="433" as="targetPoint" />
          </mxGeometry>
        </mxCell>
        <mxCell id="HkwCybVTA4TNs5xXxVJj-52" value="" style="endArrow=classic;html=1;rounded=0;entryX=0;entryY=0.75;entryDx=0;entryDy=0;entryPerimeter=0;strokeColor=#00FF00;" edge="1" parent="1" target="HkwCybVTA4TNs5xXxVJj-17">
          <mxGeometry width="50" height="50" relative="1" as="geometry">
            <mxPoint x="24" y="468" as="sourcePoint" />
            <mxPoint x="134" y="463" as="targetPoint" />
          </mxGeometry>
        </mxCell>
        <mxCell id="HkwCybVTA4TNs5xXxVJj-53" value="Giriş&lt;br&gt;&lt;br&gt;Çıkış" style="text;html=1;strokeColor=none;fillColor=none;align=center;verticalAlign=middle;whiteSpace=wrap;rounded=0;" vertex="1" parent="1">
          <mxGeometry x="10" y="155" width="60" height="30" as="geometry" />
        </mxCell>
        <mxCell id="HkwCybVTA4TNs5xXxVJj-54" value="Giriş&lt;br&gt;&lt;br&gt;Çıkış" style="text;html=1;strokeColor=none;fillColor=none;align=center;verticalAlign=middle;whiteSpace=wrap;rounded=0;" vertex="1" parent="1">
          <mxGeometry x="10" y="235" width="60" height="30" as="geometry" />
        </mxCell>
        <mxCell id="HkwCybVTA4TNs5xXxVJj-55" value="Giriş&lt;br&gt;&lt;br&gt;Çıkış" style="text;html=1;strokeColor=none;fillColor=none;align=center;verticalAlign=middle;whiteSpace=wrap;rounded=0;" vertex="1" parent="1">
          <mxGeometry x="10" y="325" width="60" height="30" as="geometry" />
        </mxCell>
        <mxCell id="HkwCybVTA4TNs5xXxVJj-56" value="Giriş&lt;br&gt;&lt;br&gt;Çıkış" style="text;html=1;strokeColor=none;fillColor=none;align=center;verticalAlign=middle;whiteSpace=wrap;rounded=0;" vertex="1" parent="1">
          <mxGeometry x="10" y="428" width="60" height="30" as="geometry" />
        </mxCell>
        <mxCell id="HkwCybVTA4TNs5xXxVJj-59" value="Hatalı" style="rounded=1;whiteSpace=wrap;html=1;fillColor=#e1d5e7;strokeColor=#9673a6;" vertex="1" parent="1">
          <mxGeometry x="259" y="230" width="114" height="60" as="geometry" />
        </mxCell>
        <mxCell id="HkwCybVTA4TNs5xXxVJj-64" value="" style="shape=flexArrow;endArrow=classic;html=1;rounded=0;exitX=0.988;exitY=0.356;exitDx=0;exitDy=0;exitPerimeter=0;fillColor=#ffe6cc;strokeColor=#d79b00;" edge="1" parent="1">
          <mxGeometry width="50" height="50" relative="1" as="geometry">
            <mxPoint x="372.63199999999995" y="341.36" as="sourcePoint" />
            <mxPoint x="449" y="341" as="targetPoint" />
            <Array as="points" />
          </mxGeometry>
        </mxCell>
        <mxCell id="HkwCybVTA4TNs5xXxVJj-104" value="çıkış yapmadan 2. giriş &lt;font color=&quot;#00b30c&quot;&gt;var &lt;/font&gt;ise" style="swimlane;fontStyle=0;childLayout=stackLayout;horizontal=1;startSize=30;horizontalStack=0;resizeParent=1;resizeParentMax=0;resizeLast=0;collapsible=1;marginBottom=0;whiteSpace=wrap;html=1;" vertex="1" parent="1">
          <mxGeometry x="450" y="268" width="350" height="150" as="geometry" />
        </mxCell>
        <mxCell id="HkwCybVTA4TNs5xXxVJj-105" value="2. Giriş 00-05 arası ise çıkış 8:30" style="text;strokeColor=none;fillColor=none;align=left;verticalAlign=middle;spacingLeft=4;spacingRight=4;overflow=hidden;points=[[0,0.5],[1,0.5]];portConstraint=eastwest;rotatable=0;whiteSpace=wrap;html=1;" vertex="1" parent="HkwCybVTA4TNs5xXxVJj-104">
          <mxGeometry y="30" width="350" height="30" as="geometry" />
        </mxCell>
        <mxCell id="HkwCybVTA4TNs5xXxVJj-106" value="2.&amp;nbsp;Giriş 05-16.30 arası ise çıkış 17:30" style="text;strokeColor=none;fillColor=none;align=left;verticalAlign=middle;spacingLeft=4;spacingRight=4;overflow=hidden;points=[[0,0.5],[1,0.5]];portConstraint=eastwest;rotatable=0;whiteSpace=wrap;html=1;" vertex="1" parent="HkwCybVTA4TNs5xXxVJj-104">
          <mxGeometry y="60" width="350" height="30" as="geometry" />
        </mxCell>
        <mxCell id="HkwCybVTA4TNs5xXxVJj-107" value="2.&amp;nbsp;Giriş yukarıdaki saatler arası değil ise çıkış ertesi gün 00:30" style="text;strokeColor=none;fillColor=none;align=left;verticalAlign=middle;spacingLeft=4;spacingRight=4;overflow=hidden;points=[[0,0.5],[1,0.5]];portConstraint=eastwest;rotatable=0;whiteSpace=wrap;html=1;" vertex="1" parent="HkwCybVTA4TNs5xXxVJj-104">
          <mxGeometry y="90" width="350" height="30" as="geometry" />
        </mxCell>
        <mxCell id="HkwCybVTA4TNs5xXxVJj-108" value="Hiç bir şartı sağlamama durumunda giriş saatinden itibaren 8 saat sonrasına çıkış yazılır" style="text;strokeColor=none;fillColor=none;align=left;verticalAlign=middle;spacingLeft=4;spacingRight=4;overflow=hidden;points=[[0,0.5],[1,0.5]];portConstraint=eastwest;rotatable=0;whiteSpace=wrap;html=1;" vertex="1" parent="HkwCybVTA4TNs5xXxVJj-104">
          <mxGeometry y="120" width="350" height="30" as="geometry" />
        </mxCell>
        <mxCell id="HkwCybVTA4TNs5xXxVJj-120" value="" style="shape=flexArrow;endArrow=classic;html=1;rounded=0;exitX=0.086;exitY=0.972;exitDx=0;exitDy=0;exitPerimeter=0;fillColor=#D5E8c0;strokeColor=#82b366;" edge="1" parent="HkwCybVTA4TNs5xXxVJj-104">
          <mxGeometry width="50" height="50" relative="1" as="geometry">
            <mxPoint x="30.100000000000023" y="149.16000000000003" as="sourcePoint" />
            <mxPoint y="192" as="targetPoint" />
            <Array as="points">
              <mxPoint x="30" y="192" />
            </Array>
          </mxGeometry>
        </mxCell>
        <mxCell id="HkwCybVTA4TNs5xXxVJj-109" value="36 saat geçtikten sonra&lt;br&gt;Çıkış yapmadan 2. giriş &lt;font color=&quot;#ff0000&quot;&gt;yok &lt;/font&gt;ise&lt;br&gt;Giriş saatinden 8 saat sonrası çıkış yazılır" style="text;strokeColor=none;fillColor=none;align=left;verticalAlign=middle;spacingLeft=4;spacingRight=4;overflow=hidden;points=[[0,0.5],[1,0.5]];portConstraint=eastwest;rotatable=0;whiteSpace=wrap;html=1;" vertex="1" parent="1">
          <mxGeometry x="494" y="423" width="260" height="67" as="geometry" />
        </mxCell>
        <mxCell id="HkwCybVTA4TNs5xXxVJj-114" value="" style="shape=flexArrow;endArrow=classic;html=1;rounded=0;entryX=1.007;entryY=0.626;entryDx=0;entryDy=0;entryPerimeter=0;fillColor=#d5e8d4;strokeColor=#82b366;" edge="1" parent="1" target="HkwCybVTA4TNs5xXxVJj-40">
          <mxGeometry width="50" height="50" relative="1" as="geometry">
            <mxPoint x="490" y="460" as="sourcePoint" />
            <mxPoint x="380" y="468" as="targetPoint" />
          </mxGeometry>
        </mxCell>
        <mxCell id="HkwCybVTA4TNs5xXxVJj-118" value="" style="endArrow=classic;html=1;rounded=0;exitX=0.5;exitY=1;exitDx=0;exitDy=0;fillColor=#d5e8d4;strokeColor=#82b366;" edge="1" parent="1" source="HkwCybVTA4TNs5xXxVJj-42" target="HkwCybVTA4TNs5xXxVJj-40">
          <mxGeometry relative="1" as="geometry">
            <mxPoint x="320" y="380" as="sourcePoint" />
            <mxPoint x="410" y="430" as="targetPoint" />
          </mxGeometry>
        </mxCell>
        <mxCell id="HkwCybVTA4TNs5xXxVJj-119" value="Eğer çıkış yaparsa" style="edgeLabel;resizable=0;html=1;align=center;verticalAlign=middle;fontColor=#063D00;" connectable="0" vertex="1" parent="HkwCybVTA4TNs5xXxVJj-118">
          <mxGeometry relative="1" as="geometry" />
        </mxCell>
      </root>
    </mxGraphModel>
  </diagram>
</mxfile>
